<mxfile host="app.diagrams.net" modified="2020-05-28T06:15:56.791Z" agent="5.0 (Windows)" etag="SlKO6lfYpXqqLz-T40fB" version="13.1.3" type="github">
  <diagram id="vuKt_qVd1nwh66aFZlVY" name="Page-1">
    <mxGraphModel dx="1071" dy="544" grid="1" gridSize="10" guides="1" tooltips="1" connect="1" arrows="1" fold="1" page="1" pageScale="1" pageWidth="850" pageHeight="1100" math="0" shadow="0">
      <root>
        <mxCell id="0" />
        <mxCell id="1" parent="0" />
        <mxCell id="YLMEgmy7amWqKQakdind-1" value="&lt;font style=&quot;font-size: 16px&quot;&gt;A&lt;/font&gt;" style="ellipse;whiteSpace=wrap;html=1;aspect=fixed;" vertex="1" parent="1">
          <mxGeometry x="310" width="50" height="50" as="geometry" />
        </mxCell>
        <mxCell id="YLMEgmy7amWqKQakdind-3" value="&lt;font style=&quot;font-size: 16px&quot;&gt;AA&lt;/font&gt;" style="ellipse;whiteSpace=wrap;html=1;aspect=fixed;" vertex="1" parent="1">
          <mxGeometry x="140" y="90" width="50" height="50" as="geometry" />
        </mxCell>
        <mxCell id="YLMEgmy7amWqKQakdind-4" value="&lt;font style=&quot;font-size: 16px&quot;&gt;AB&lt;/font&gt;" style="ellipse;whiteSpace=wrap;html=1;aspect=fixed;" vertex="1" parent="1">
          <mxGeometry x="310" y="90" width="50" height="50" as="geometry" />
        </mxCell>
        <mxCell id="YLMEgmy7amWqKQakdind-5" value="&lt;font style=&quot;font-size: 16px&quot;&gt;AC&lt;/font&gt;" style="ellipse;whiteSpace=wrap;html=1;aspect=fixed;" vertex="1" parent="1">
          <mxGeometry x="470" y="90" width="50" height="50" as="geometry" />
        </mxCell>
        <mxCell id="YLMEgmy7amWqKQakdind-6" value="&lt;font style=&quot;font-size: 16px&quot;&gt;AAA&lt;/font&gt;" style="ellipse;whiteSpace=wrap;html=1;aspect=fixed;" vertex="1" parent="1">
          <mxGeometry x="140" y="180" width="50" height="50" as="geometry" />
        </mxCell>
        <mxCell id="YLMEgmy7amWqKQakdind-7" value="&lt;font style=&quot;font-size: 16px&quot;&gt;ABA&lt;/font&gt;" style="ellipse;whiteSpace=wrap;html=1;aspect=fixed;" vertex="1" parent="1">
          <mxGeometry x="260" y="180" width="50" height="50" as="geometry" />
        </mxCell>
        <mxCell id="YLMEgmy7amWqKQakdind-8" value="&lt;font style=&quot;font-size: 16px&quot;&gt;ABB&lt;/font&gt;" style="ellipse;whiteSpace=wrap;html=1;aspect=fixed;" vertex="1" parent="1">
          <mxGeometry x="360" y="180" width="50" height="50" as="geometry" />
        </mxCell>
        <mxCell id="YLMEgmy7amWqKQakdind-9" value="" style="endArrow=none;html=1;entryX=0.046;entryY=0.734;entryDx=0;entryDy=0;exitX=0.5;exitY=0;exitDx=0;exitDy=0;entryPerimeter=0;" edge="1" parent="1" source="YLMEgmy7amWqKQakdind-3" target="YLMEgmy7amWqKQakdind-1">
          <mxGeometry width="50" height="50" relative="1" as="geometry">
            <mxPoint x="120" y="70" as="sourcePoint" />
            <mxPoint x="170" y="20" as="targetPoint" />
          </mxGeometry>
        </mxCell>
        <mxCell id="YLMEgmy7amWqKQakdind-10" value="" style="endArrow=none;html=1;exitX=0.5;exitY=0;exitDx=0;exitDy=0;entryX=0.5;entryY=1;entryDx=0;entryDy=0;" edge="1" parent="1" source="YLMEgmy7amWqKQakdind-6" target="YLMEgmy7amWqKQakdind-3">
          <mxGeometry width="50" height="50" relative="1" as="geometry">
            <mxPoint x="120" y="190" as="sourcePoint" />
            <mxPoint x="170" y="130" as="targetPoint" />
          </mxGeometry>
        </mxCell>
        <mxCell id="YLMEgmy7amWqKQakdind-11" value="" style="endArrow=none;html=1;entryX=0.5;entryY=1;entryDx=0;entryDy=0;exitX=0.5;exitY=0;exitDx=0;exitDy=0;" edge="1" parent="1" source="YLMEgmy7amWqKQakdind-4" target="YLMEgmy7amWqKQakdind-1">
          <mxGeometry width="50" height="50" relative="1" as="geometry">
            <mxPoint x="240" y="140" as="sourcePoint" />
            <mxPoint x="290" y="90" as="targetPoint" />
          </mxGeometry>
        </mxCell>
        <mxCell id="YLMEgmy7amWqKQakdind-12" value="" style="endArrow=none;html=1;entryX=0.5;entryY=1;entryDx=0;entryDy=0;exitX=0.5;exitY=0;exitDx=0;exitDy=0;" edge="1" parent="1" source="YLMEgmy7amWqKQakdind-7" target="YLMEgmy7amWqKQakdind-4">
          <mxGeometry width="50" height="50" relative="1" as="geometry">
            <mxPoint x="240" y="190" as="sourcePoint" />
            <mxPoint x="290" y="140" as="targetPoint" />
          </mxGeometry>
        </mxCell>
        <mxCell id="YLMEgmy7amWqKQakdind-13" value="" style="endArrow=none;html=1;entryX=0.5;entryY=1;entryDx=0;entryDy=0;" edge="1" parent="1" target="YLMEgmy7amWqKQakdind-4">
          <mxGeometry width="50" height="50" relative="1" as="geometry">
            <mxPoint x="390" y="180" as="sourcePoint" />
            <mxPoint x="440" y="130" as="targetPoint" />
          </mxGeometry>
        </mxCell>
        <mxCell id="YLMEgmy7amWqKQakdind-14" value="" style="endArrow=none;html=1;entryX=1.006;entryY=0.599;entryDx=0;entryDy=0;entryPerimeter=0;exitX=0.5;exitY=0;exitDx=0;exitDy=0;" edge="1" parent="1" source="YLMEgmy7amWqKQakdind-5" target="YLMEgmy7amWqKQakdind-1">
          <mxGeometry width="50" height="50" relative="1" as="geometry">
            <mxPoint x="390" y="130" as="sourcePoint" />
            <mxPoint x="440" y="80" as="targetPoint" />
          </mxGeometry>
        </mxCell>
      </root>
    </mxGraphModel>
  </diagram>
</mxfile>
